<svg width="122" height="122" viewBox="0 0 122 122" fill="none" xmlns="http://www.w3.org/2000/svg"><circle cx="61" cy="61" r="61" fill="#B4B4B4"></circle><path fill-rule="evenodd" clip-rule="evenodd" d="M53.2222 34.2222C53.2222 29.9267 56.7045 26.4444 61 26.4444C65.2955 26.4444 68.7778 29.9267 68.7778 34.2222C68.7778 38.5178 65.2955 42 61 42C56.7045 42 53.2222 38.5178 53.2222 34.2222ZM68.8387 43.6001C71.5181 41.3581 73.2222 37.9892 73.2222 34.2222C73.2222 27.4721 67.7501 22 61 22C54.2499 22 48.7778 27.4721 48.7778 34.2222C48.7778 37.9892 50.4819 41.3581 53.1613 43.6001C50.8077 44.6028 48.6677 46.048 46.8579 47.8579C45.0007 49.715 43.5275 51.9198 42.5224 54.3463C41.5173 56.7728 41 59.3736 41 62H45.4444C45.4444 59.9572 45.8468 57.9344 46.6285 56.0471C47.4103 54.1599 48.5561 52.445 50.0006 51.0006C51.445 49.5561 53.1599 48.4103 55.0471 47.6285C56.9344 46.8468 58.9572 46.4444 61 46.4444C63.0428 46.4444 65.0656 46.8468 66.9529 47.6285C68.8401 48.4103 70.555 49.5561 71.9994 51.0006C73.4439 52.445 74.5897 54.1599 75.3715 56.0471C76.1532 57.9344 76.5556 59.9572 76.5556 62H81C81 59.3736 80.4827 56.7728 79.4776 54.3463C78.4725 51.9198 76.9993 49.715 75.1421 47.8579C73.3323 46.048 71.1923 44.6028 68.8387 43.6001Z" fill="white"></path><mask id="mask_athlete_0" maskUnits="userSpaceOnUse" x="61" y="80" width="23" height="22"><path fill-rule="evenodd" clip-rule="evenodd" d="M61.6562 80.0571H83.5612V102H61.6562V80.0571Z" fill="white"></path></mask><g mask="url(#mask_athlete_0)"><path fill-rule="evenodd" clip-rule="evenodd" d="M81.7499 91.5918C81.4602 96.3785 77.4846 100.17 72.629 100.17C67.5767 100.17 63.4876 96.0779 63.4876 91.0277C63.4876 86.9715 66.1259 83.5325 69.7823 82.3361C69.849 81.891 69.8834 81.4356 69.8834 80.9712C69.8834 80.7807 69.8766 80.5935 69.8676 80.4071C65.1435 81.6317 61.6562 85.9224 61.6562 91.0277C61.6562 97.0858 66.5661 102 72.629 102C78.3899 102 83.1168 97.5529 83.5612 91.9014C82.9414 91.8477 82.336 91.7438 81.7499 91.5918M72.6295 81.885C77.2105 81.885 81.0094 85.2608 81.6691 89.6643C82.2718 89.8597 82.9019 89.9959 83.5541 90.0654C83.0657 84.4566 78.3594 80.0571 72.6295 80.0571C72.3082 80.0571 71.9917 80.0716 71.6808 80.0977C71.7007 80.386 71.7131 80.677 71.7131 80.9714C71.7131 81.2961 71.6966 81.6181 71.6718 81.9345C71.9856 81.9015 72.3041 81.885 72.6295 81.885" fill="white"></path></g><mask id="mask_athlete_1" maskUnits="userSpaceOnUse" x="37" y="80" width="23" height="22"><path fill-rule="evenodd" clip-rule="evenodd" d="M37.8848 80.0575H59.7918V102H37.8848V80.0575Z" fill="white"></path></mask><g mask="url(#mask_athlete_1)"><path fill-rule="evenodd" clip-rule="evenodd" d="M59.7918 91.9012C59.3474 97.5534 54.6226 102 48.8576 102C42.796 102 37.8848 97.0862 37.8848 91.0275C37.8848 85.9229 41.3727 81.6321 46.0975 80.4076C46.1058 80.5933 46.112 80.7812 46.112 80.971C46.112 81.4361 46.0769 81.8915 46.0108 82.3366C42.3551 83.533 39.7175 86.972 39.7175 91.0275C39.7175 96.0777 43.8053 100.17 48.8576 100.17C53.7152 100.17 57.6908 96.379 57.9805 91.5923C58.5645 91.7436 59.1727 91.8482 59.7918 91.9012M47.9004 81.935C47.9265 81.6186 47.943 81.2966 47.943 80.9712C47.943 80.6775 47.9306 80.3865 47.9107 80.0982C48.2216 80.0721 48.5381 80.0576 48.858 80.0576C54.5886 80.0576 59.3004 84.4571 59.7888 90.0659C59.1325 89.9957 58.5003 89.8602 57.899 89.6648C57.2393 85.2613 53.4397 81.8848 48.858 81.8848C48.534 81.8848 48.2141 81.902 47.9004 81.935" fill="white"></path></g><mask id="mask_athlete_2" maskUnits="userSpaceOnUse" x="73" y="70" width="23" height="22"><path fill-rule="evenodd" clip-rule="evenodd" d="M73.5718 70H95.4823V91.9427H73.5718V70Z" fill="white"></path></mask><g mask="url(#mask_athlete_2)"><path fill-rule="evenodd" clip-rule="evenodd" d="M95.4823 80.9712C95.4823 87.0306 90.5717 91.9426 84.5109 91.9426C78.774 91.9426 74.0692 87.5438 73.5807 81.9343C74.237 82.0024 74.8651 82.14 75.4698 82.3361C76.1275 86.7382 79.9236 90.1147 84.5109 90.1147C89.559 90.1147 93.6523 86.02 93.6523 80.9712C93.6523 75.923 89.559 71.8283 84.5109 71.8283C79.6491 71.8283 75.6762 75.6203 75.3866 80.4077C74.7984 80.2564 74.1957 80.1518 73.5718 80.0975C74.021 74.446 78.7452 69.9998 84.5109 69.9998C90.5717 69.9998 95.4823 74.9124 95.4823 80.9712" fill="white"></path></g><mask id="mask_athlete_3" maskUnits="userSpaceOnUse" x="49" y="70" width="23" height="22"><path fill-rule="evenodd" clip-rule="evenodd" d="M49.8037 70H71.7121V91.9427H49.8037V70Z" fill="white"></path></mask><g mask="url(#mask_athlete_3)"><path fill-rule="evenodd" clip-rule="evenodd" d="M60.7389 90.1149C56.1565 90.1149 52.3569 86.7385 51.6979 82.3363C51.0946 82.1402 50.4658 82.0026 49.8095 81.9345C50.2986 87.5441 55.0035 91.9428 60.7389 91.9428C61.0609 91.9428 61.378 91.9297 61.6904 91.9015C61.669 91.6153 61.656 91.323 61.656 91.0278C61.656 90.7038 61.6725 90.3818 61.6993 90.0661C61.3835 90.0984 61.0636 90.1149 60.7389 90.1149M60.7387 69.9998C54.9736 69.9998 50.2502 74.446 49.8037 80.0975C50.4249 80.1518 51.0262 80.2564 51.6165 80.4077C51.904 75.6203 55.8797 71.8283 60.7387 71.8283C65.791 71.8283 69.8829 75.923 69.8829 80.9712C69.8829 85.0266 67.2432 88.4671 63.5861 89.6648C63.5207 90.1078 63.487 90.5639 63.487 91.0276C63.487 91.2182 63.4884 91.4067 63.5015 91.5917C68.2249 90.3679 71.7121 86.0771 71.7121 80.9712C71.7121 74.9124 66.8016 69.9998 60.7387 69.9998" fill="white"></path></g><mask id="mask_athlete_4" maskUnits="userSpaceOnUse" x="26" y="70" width="22" height="22"><path fill-rule="evenodd" clip-rule="evenodd" d="M26 70H47.9417V91.9427H26V70Z" fill="white"></path></mask><g mask="url(#mask_athlete_4)"><path fill-rule="evenodd" clip-rule="evenodd" d="M47.9417 80.9712C47.9417 74.9124 43.0311 69.9998 36.9689 69.9998C30.9122 69.9998 25.9995 74.9124 25.9995 80.9712C25.9995 87.0306 30.9122 91.9426 36.9689 91.9426C37.2901 91.9426 37.6045 91.9295 37.9182 91.902C37.8969 91.6151 37.8838 91.3227 37.8838 91.0276C37.8838 90.7036 37.901 90.3816 37.9265 90.0659C37.6114 90.0982 37.2929 90.1147 36.9689 90.1147C31.92 90.1147 27.8267 86.02 27.8267 80.9712C27.8267 75.923 31.92 71.8283 36.9689 71.8283C42.0205 71.8283 46.111 75.923 46.111 80.9712C46.111 85.0273 43.4714 88.4671 39.8149 89.6648C39.7502 90.1078 39.7165 90.5639 39.7165 91.0276C39.7165 91.2182 39.7179 91.4067 39.7303 91.5917C44.4544 90.3679 47.9417 86.0771 47.9417 80.9712" fill="white"></path></g></svg>